<?xml version="1.0" encoding="UTF-8"?><svg id="uuid-afe69d35-ffdd-4b12-9799-3a3caa70bd3b" xmlns="http://www.w3.org/2000/svg" viewBox="0 0 480.96 288.29"><defs><style>.uuid-4128c579-2fa9-49d7-8c3c-987bc63c603f{fill:#949294;}.uuid-4128c579-2fa9-49d7-8c3c-987bc63c603f,.uuid-1c8c7297-a242-4b37-b53b-e9aee2bc6465{stroke-width:0px;}.uuid-1c8c7297-a242-4b37-b53b-e9aee2bc6465{fill:#fff;}</style></defs><g id="uuid-2043feed-8812-4fe0-9d49-3853d6f4cf4e"><polygon class="uuid-4128c579-2fa9-49d7-8c3c-987bc63c603f" points="325.73 287.5 299.59 253.9 421.95 0 464.28 0 325.73 287.5"/><polygon class="uuid-4128c579-2fa9-49d7-8c3c-987bc63c603f" points="155.24 287.5 181.37 253.9 59.01 0 16.69 0 155.24 287.5"/><path class="uuid-1c8c7297-a242-4b37-b53b-e9aee2bc6465" d="M438.52,0l-19.83,41.15h-159.09l-1.72,3.52-17.4,35.53-21.22,44.04-.17.36-116.54.13L42.44,0H0l138.93,288.29h43.71l57.84-120.02,57.84,120.02h43.71L480.96,0h-42.44ZM399.66,80.64l-21.1,43.78-116.71.13-.15-.31,21.17-43.59h116.79ZM160.79,245.58l-39.37-81.69h78.73l-39.36,81.69ZM320.18,245.58l-39.36-81.69h78.73l-39.36,81.69Z"/></g></svg>